<svg xmlns="http://www.w3.org/2000/svg" xmlns:xlink="http://www.w3.org/1999/xlink" width="300" zoomAndPan="magnify" viewBox="0 0 224.87999 225" height="300" preserveAspectRatio="xMidYMid meet" version="1.0"><defs><g/><clipPath id="6df1ead9ff"><path d="M 70.644531 73 L 154.628906 73 L 154.628906 106.085938 L 70.644531 106.085938 Z M 70.644531 73 " clip-rule="nonzero"/></clipPath><clipPath id="4c9637e3f1"><path d="M 70.644531 65 L 154.628906 65 L 154.628906 74 L 70.644531 74 Z M 70.644531 65 " clip-rule="nonzero"/></clipPath><clipPath id="bd679d04e8"><path d="M 84 73 L 141 73 L 141 106.085938 L 84 106.085938 Z M 84 73 " clip-rule="nonzero"/></clipPath><clipPath id="6fc431af4a"><path d="M 101 22.101562 L 124 22.101562 L 124 66 L 101 66 Z M 101 22.101562 " clip-rule="nonzero"/></clipPath><clipPath id="9fcdf0678c"><path d="M 85 65 L 154.628906 65 L 154.628906 72 L 85 72 Z M 85 65 " clip-rule="nonzero"/></clipPath></defs><g clip-path="url(#6df1ead9ff)"><path fill="#4e4f50" d="M 149.03125 73.890625 L 154.554688 101.515625 C 154.605469 101.761719 154.628906 102.011719 154.628906 102.261719 C 154.628906 102.769531 154.53125 103.257812 154.335938 103.726562 C 154.144531 104.195312 153.867188 104.605469 153.507812 104.964844 C 153.152344 105.324219 152.738281 105.601562 152.269531 105.792969 C 151.800781 105.988281 151.3125 106.085938 150.808594 106.085938 L 149.648438 106.085938 C 149.238281 106.085938 148.832031 106.019531 148.441406 105.886719 L 142.640625 103.957031 C 138.285156 102.503906 133.847656 101.371094 129.328125 100.566406 L 95.945312 100.566406 C 91.425781 101.375 86.988281 102.503906 82.632812 103.957031 L 76.832031 105.886719 C 76.4375 106.019531 76.035156 106.085938 75.621094 106.085938 L 74.464844 106.085938 C 73.957031 106.085938 73.472656 105.988281 73.003906 105.792969 C 72.535156 105.601562 72.121094 105.324219 71.761719 104.964844 C 71.40625 104.605469 71.128906 104.195312 70.933594 103.726562 C 70.742188 103.257812 70.644531 102.769531 70.644531 102.261719 C 70.644531 102.011719 70.667969 101.761719 70.71875 101.515625 L 76.242188 73.890625 Z M 149.03125 73.890625 " fill-opacity="1" fill-rule="nonzero"/></g><path fill="#434344" d="M 141.785156 73.890625 L 146.171875 95.507812 C 146.210938 95.703125 146.230469 95.898438 146.230469 96.097656 C 146.226562 96.496094 146.148438 96.878906 145.992188 97.246094 C 145.835938 97.613281 145.617188 97.9375 145.332031 98.21875 C 145.046875 98.5 144.71875 98.714844 144.351562 98.863281 C 143.980469 99.015625 143.59375 99.089844 143.195312 99.085938 L 142.277344 99.085938 C 141.949219 99.085938 141.628906 99.035156 141.316406 98.933594 L 136.710938 97.417969 C 133.25 96.28125 129.726562 95.398438 126.136719 94.765625 L 99.617188 94.765625 C 96.03125 95.398438 92.507812 96.28125 89.046875 97.417969 L 84.441406 98.933594 C 84.132812 99.035156 83.8125 99.085938 83.484375 99.085938 L 82.5625 99.085938 C 82.164062 99.089844 81.78125 99.015625 81.410156 98.863281 C 81.039062 98.714844 80.710938 98.5 80.425781 98.21875 C 80.144531 97.9375 79.921875 97.613281 79.765625 97.246094 C 79.613281 96.878906 79.53125 96.496094 79.53125 96.097656 C 79.527344 95.898438 79.550781 95.703125 79.589844 95.507812 L 83.976562 73.890625 Z M 141.785156 73.890625 " fill-opacity="1" fill-rule="nonzero"/><g clip-path="url(#4c9637e3f1)"><path fill="#e24b40" d="M 74.84375 65.492188 L 150.429688 65.492188 C 150.707031 65.492188 150.976562 65.519531 151.25 65.574219 C 151.519531 65.625 151.78125 65.707031 152.035156 65.8125 C 152.292969 65.917969 152.53125 66.046875 152.761719 66.199219 C 152.992188 66.351562 153.203125 66.527344 153.398438 66.722656 C 153.59375 66.917969 153.769531 67.128906 153.921875 67.359375 C 154.074219 67.585938 154.203125 67.828125 154.308594 68.085938 C 154.414062 68.339844 154.496094 68.601562 154.546875 68.871094 C 154.601562 69.140625 154.628906 69.414062 154.628906 69.691406 C 154.628906 69.96875 154.601562 70.238281 154.546875 70.511719 C 154.496094 70.78125 154.414062 71.042969 154.308594 71.296875 C 154.203125 71.554688 154.074219 71.792969 153.921875 72.023438 C 153.769531 72.253906 153.59375 72.464844 153.398438 72.660156 C 153.203125 72.855469 152.992188 73.03125 152.761719 73.183594 C 152.53125 73.335938 152.292969 73.464844 152.035156 73.570312 C 151.78125 73.675781 151.519531 73.757812 151.25 73.808594 C 150.976562 73.863281 150.707031 73.890625 150.429688 73.890625 L 74.84375 73.890625 C 74.566406 73.890625 74.292969 73.863281 74.023438 73.808594 C 73.753906 73.757812 73.492188 73.675781 73.234375 73.570312 C 72.980469 73.464844 72.738281 73.335938 72.511719 73.183594 C 72.28125 73.03125 72.070312 72.855469 71.875 72.660156 C 71.679688 72.464844 71.503906 72.253906 71.351562 72.023438 C 71.199219 71.792969 71.070312 71.554688 70.964844 71.296875 C 70.859375 71.042969 70.777344 70.78125 70.722656 70.511719 C 70.671875 70.238281 70.644531 69.96875 70.644531 69.691406 C 70.644531 69.414062 70.671875 69.140625 70.722656 68.871094 C 70.777344 68.601562 70.859375 68.339844 70.964844 68.085938 C 71.070312 67.828125 71.199219 67.585938 71.351562 67.359375 C 71.503906 67.128906 71.679688 66.917969 71.875 66.722656 C 72.070312 66.527344 72.28125 66.351562 72.511719 66.199219 C 72.738281 66.046875 72.980469 65.917969 73.234375 65.8125 C 73.492188 65.707031 73.753906 65.625 74.023438 65.574219 C 74.292969 65.519531 74.566406 65.492188 74.84375 65.492188 Z M 74.84375 65.492188 " fill-opacity="1" fill-rule="nonzero"/></g><path fill="#ad3532" d="M 74.84375 65.492188 C 74.84375 63.46875 75.003906 61.457031 75.328125 59.457031 C 75.652344 57.460938 76.132812 55.5 76.769531 53.578125 C 77.40625 51.660156 78.195312 49.800781 79.128906 48.007812 C 80.066406 46.210938 81.140625 44.503906 82.351562 42.882812 C 83.558594 41.257812 84.890625 39.742188 86.347656 38.335938 C 87.800781 36.925781 89.355469 35.644531 91.015625 34.484375 C 92.675781 33.328125 94.417969 32.308594 96.242188 31.429688 C 98.066406 30.550781 99.949219 29.824219 101.886719 29.25 L 123.386719 29.25 C 125.324219 29.824219 127.207031 30.550781 129.03125 31.429688 C 130.855469 32.308594 132.59375 33.328125 134.253906 34.484375 C 135.914062 35.644531 137.472656 36.925781 138.925781 38.335938 C 140.378906 39.742188 141.710938 41.257812 142.921875 42.882812 C 144.132812 44.503906 145.207031 46.210938 146.140625 48.007812 C 147.078125 49.800781 147.867188 51.660156 148.503906 53.578125 C 149.140625 55.5 149.621094 57.460938 149.945312 59.457031 C 150.269531 61.457031 150.429688 63.46875 150.429688 65.492188 Z M 74.84375 65.492188 " fill-opacity="1" fill-rule="nonzero"/><g clip-path="url(#bd679d04e8)"><path fill="#7a7b7d" d="M 135.03125 73.890625 L 135.03125 78.089844 C 135.03125 78.824219 134.996094 79.554688 134.925781 80.285156 C 134.851562 81.015625 134.746094 81.738281 134.601562 82.457031 C 134.457031 83.179688 134.28125 83.890625 134.066406 84.589844 C 133.855469 85.292969 133.609375 85.984375 133.328125 86.660156 C 133.046875 87.335938 132.734375 88 132.386719 88.648438 C 132.042969 89.292969 131.664062 89.921875 131.257812 90.53125 C 130.851562 91.140625 130.414062 91.730469 129.949219 92.296875 C 129.484375 92.863281 128.992188 93.40625 128.472656 93.925781 C 127.953125 94.445312 127.410156 94.9375 126.84375 95.402344 C 126.277344 95.867188 125.6875 96.304688 125.078125 96.710938 C 124.46875 97.117188 123.839844 97.496094 123.195312 97.839844 C 122.546875 98.1875 121.882812 98.5 121.207031 98.78125 C 120.527344 99.0625 119.839844 99.308594 119.136719 99.519531 C 118.4375 99.734375 117.726562 99.914062 117.003906 100.054688 C 116.285156 100.199219 115.5625 100.304688 114.832031 100.378906 C 114.101562 100.449219 113.371094 100.484375 112.636719 100.484375 C 111.902344 100.484375 111.171875 100.449219 110.441406 100.378906 C 109.710938 100.304688 108.988281 100.199219 108.265625 100.054688 C 107.546875 99.914062 106.835938 99.734375 106.136719 99.519531 C 105.433594 99.308594 104.742188 99.0625 104.066406 98.78125 C 103.386719 98.5 102.726562 98.1875 102.078125 97.839844 C 101.433594 97.496094 100.804688 97.117188 100.195312 96.710938 C 99.582031 96.304688 98.996094 95.867188 98.429688 95.402344 C 97.863281 94.9375 97.320312 94.445312 96.800781 93.925781 C 96.28125 93.40625 95.789062 92.863281 95.324219 92.296875 C 94.859375 91.730469 94.421875 91.140625 94.015625 90.53125 C 93.605469 89.921875 93.230469 89.292969 92.882812 88.648438 C 92.539062 88 92.226562 87.335938 91.945312 86.660156 C 91.664062 85.984375 91.417969 85.292969 91.203125 84.589844 C 90.992188 83.890625 90.8125 83.179688 90.671875 82.457031 C 90.527344 81.738281 90.421875 81.015625 90.347656 80.285156 C 90.277344 79.554688 90.242188 78.824219 90.242188 78.089844 L 90.242188 73.890625 L 84.640625 73.890625 L 84.640625 78.089844 C 84.640625 79.007812 84.6875 79.921875 84.777344 80.832031 C 84.867188 81.746094 85 82.652344 85.179688 83.550781 C 85.359375 84.449219 85.582031 85.339844 85.847656 86.214844 C 86.113281 87.09375 86.421875 87.957031 86.773438 88.804688 C 87.125 89.648438 87.515625 90.476562 87.945312 91.285156 C 88.378906 92.09375 88.851562 92.878906 89.359375 93.644531 C 89.867188 94.40625 90.414062 95.140625 90.996094 95.847656 C 91.578125 96.558594 92.191406 97.238281 92.839844 97.886719 C 93.488281 98.535156 94.167969 99.148438 94.875 99.730469 C 95.585938 100.3125 96.320312 100.855469 97.082031 101.367188 C 97.84375 101.875 98.632812 102.347656 99.441406 102.777344 C 100.25 103.210938 101.074219 103.601562 101.921875 103.953125 C 102.769531 104.304688 103.632812 104.613281 104.507812 104.878906 C 105.386719 105.144531 106.277344 105.367188 107.175781 105.546875 C 108.074219 105.726562 108.980469 105.859375 109.890625 105.949219 C 110.804688 106.039062 111.71875 106.085938 112.636719 106.085938 C 113.554688 106.085938 114.46875 106.039062 115.378906 105.949219 C 116.292969 105.859375 117.199219 105.726562 118.097656 105.546875 C 118.996094 105.367188 119.886719 105.144531 120.761719 104.878906 C 121.640625 104.613281 122.503906 104.304688 123.347656 103.953125 C 124.195312 103.601562 125.023438 103.210938 125.832031 102.777344 C 126.640625 102.347656 127.425781 101.875 128.1875 101.367188 C 128.953125 100.855469 129.6875 100.3125 130.394531 99.730469 C 131.105469 99.148438 131.785156 98.535156 132.433594 97.886719 C 133.078125 97.238281 133.695312 96.558594 134.277344 95.847656 C 134.859375 95.140625 135.402344 94.40625 135.914062 93.644531 C 136.421875 92.878906 136.894531 92.09375 137.324219 91.285156 C 137.757812 90.476562 138.148438 89.648438 138.5 88.804688 C 138.851562 87.957031 139.160156 87.09375 139.425781 86.214844 C 139.691406 85.339844 139.914062 84.449219 140.09375 83.550781 C 140.273438 82.652344 140.40625 81.746094 140.496094 80.832031 C 140.585938 79.921875 140.632812 79.007812 140.632812 78.089844 L 140.632812 73.890625 Z M 135.03125 73.890625 " fill-opacity="1" fill-rule="nonzero"/></g><path fill="#ffc239" d="M 75.101562 61.292969 L 150.171875 61.292969 C 149.964844 59.398438 149.617188 57.535156 149.128906 55.695312 L 76.144531 55.695312 C 75.65625 57.535156 75.308594 59.398438 75.101562 61.292969 Z M 75.101562 61.292969 " fill-opacity="1" fill-rule="nonzero"/><g clip-path="url(#6fc431af4a)"><path fill="#c64635" d="M 104.378906 53.371094 L 105.636719 65.492188 L 119.636719 65.492188 L 120.894531 53.371094 L 122.386719 38.898438 L 123.820312 25.039062 C 123.828125 24.945312 123.835938 24.851562 123.835938 24.757812 C 123.835938 24.40625 123.765625 24.066406 123.632812 23.742188 C 123.496094 23.414062 123.304688 23.128906 123.054688 22.878906 C 122.804688 22.628906 122.519531 22.4375 122.191406 22.300781 C 121.867188 22.167969 121.527344 22.101562 121.175781 22.101562 L 104.097656 22.101562 C 103.746094 22.101562 103.40625 22.167969 103.078125 22.300781 C 102.753906 22.4375 102.464844 22.628906 102.21875 22.878906 C 101.96875 23.128906 101.777344 23.414062 101.640625 23.742188 C 101.503906 24.066406 101.4375 24.40625 101.4375 24.757812 C 101.4375 24.851562 101.441406 24.945312 101.453125 25.039062 L 102.886719 38.898438 Z M 104.378906 53.371094 " fill-opacity="1" fill-rule="nonzero"/></g><path fill="#ffc239" d="M 112.636719 59.894531 C 111.703125 59.480469 110.804688 59 109.941406 58.457031 C 109.078125 57.910156 108.257812 57.308594 107.484375 56.644531 C 106.707031 55.984375 105.980469 55.269531 105.308594 54.503906 C 104.636719 53.734375 104.019531 52.925781 103.464844 52.070312 C 102.910156 51.214844 102.417969 50.320312 101.988281 49.394531 C 101.5625 48.46875 101.203125 47.515625 100.914062 46.539062 C 100.625 45.558594 100.40625 44.566406 100.257812 43.554688 C 100.113281 42.546875 100.039062 41.53125 100.039062 40.511719 C 100.039062 40.296875 100.078125 40.089844 100.160156 39.894531 C 100.242188 39.695312 100.359375 39.519531 100.511719 39.371094 C 100.660156 39.21875 100.835938 39.101562 101.035156 39.019531 C 101.230469 38.9375 101.4375 38.898438 101.652344 38.898438 L 102.496094 38.898438 C 103.949219 38.898438 105.347656 38.617188 106.691406 38.0625 C 108.035156 37.507812 109.21875 36.714844 110.246094 35.6875 C 110.90625 35.027344 111.703125 34.699219 112.636719 34.699219 C 113.570312 34.699219 114.367188 35.027344 115.027344 35.6875 C 116.054688 36.714844 117.238281 37.507812 118.582031 38.0625 C 119.921875 38.617188 121.320312 38.898438 122.773438 38.898438 L 123.613281 38.898438 C 123.828125 38.894531 124.035156 38.9375 124.234375 39.015625 C 124.433594 39.097656 124.609375 39.214844 124.757812 39.367188 C 124.910156 39.519531 125.027344 39.691406 125.109375 39.890625 C 125.191406 40.089844 125.234375 40.296875 125.234375 40.511719 C 125.234375 41.53125 125.160156 42.546875 125.015625 43.554688 C 124.867188 44.566406 124.648438 45.558594 124.359375 46.539062 C 124.070312 47.515625 123.710938 48.46875 123.28125 49.394531 C 122.855469 50.320312 122.363281 51.214844 121.808594 52.070312 C 121.25 52.925781 120.636719 53.734375 119.964844 54.503906 C 119.289062 55.269531 118.566406 55.984375 117.789062 56.644531 C 117.011719 57.308594 116.195312 57.910156 115.328125 58.457031 C 114.464844 59 113.570312 59.480469 112.636719 59.894531 Z M 112.636719 59.894531 " fill-opacity="1" fill-rule="nonzero"/><path fill="#ffd55d" d="M 123.621094 38.898438 L 122.78125 38.898438 C 121.328125 38.898438 119.929688 38.617188 118.589844 38.0625 C 117.246094 37.507812 116.058594 36.714844 115.03125 35.6875 C 114.714844 35.371094 114.351562 35.125 113.9375 34.953125 C 113.523438 34.78125 113.089844 34.695312 112.644531 34.695312 C 112.195312 34.695312 111.765625 34.78125 111.351562 34.953125 C 110.9375 35.125 110.570312 35.371094 110.253906 35.6875 C 109.265625 36.671875 108.132812 37.441406 106.851562 37.992188 C 105.570312 38.542969 104.230469 38.839844 102.839844 38.882812 L 102.839844 38.898438 C 102.835938 39.445312 102.859375 39.992188 102.914062 40.535156 C 102.96875 41.082031 103.054688 41.621094 103.167969 42.15625 C 103.28125 42.691406 103.421875 43.222656 103.589844 43.742188 C 103.761719 44.261719 103.957031 44.773438 104.179688 45.273438 C 104.40625 45.773438 104.65625 46.257812 104.933594 46.730469 C 105.210938 47.203125 105.511719 47.660156 105.835938 48.101562 C 106.164062 48.539062 106.511719 48.960938 106.882812 49.363281 C 107.253906 49.765625 107.644531 50.148438 108.054688 50.511719 C 108.46875 50.871094 108.898438 51.207031 109.347656 51.523438 C 109.792969 51.839844 110.257812 52.128906 110.738281 52.394531 C 111.214844 52.65625 111.707031 52.894531 112.214844 53.109375 C 112.71875 53.320312 113.234375 53.503906 113.757812 53.660156 C 114.28125 53.816406 114.816406 53.945312 115.351562 54.046875 C 115.890625 54.144531 116.433594 54.214844 116.980469 54.257812 C 117.527344 54.300781 118.074219 54.3125 118.621094 54.292969 C 119.167969 54.277344 119.710938 54.230469 120.253906 54.152344 C 121.863281 52.246094 123.09375 50.117188 123.949219 47.773438 C 124.804688 45.425781 125.234375 43.007812 125.234375 40.511719 C 125.234375 40.296875 125.195312 40.089844 125.113281 39.894531 C 125.03125 39.695312 124.914062 39.519531 124.761719 39.371094 C 124.609375 39.21875 124.4375 39.101562 124.238281 39.019531 C 124.042969 38.9375 123.835938 38.898438 123.621094 38.898438 Z M 123.621094 38.898438 " fill-opacity="1" fill-rule="nonzero"/><g clip-path="url(#9fcdf0678c)"><path fill="#ffffff" d="M 154.628906 69.691406 C 154.628906 69.414062 154.601562 69.140625 154.546875 68.871094 C 154.496094 68.601562 154.414062 68.339844 154.308594 68.085938 C 154.203125 67.828125 154.074219 67.585938 153.921875 67.359375 C 153.769531 67.128906 153.59375 66.917969 153.398438 66.722656 C 153.203125 66.527344 152.992188 66.351562 152.761719 66.199219 C 152.53125 66.046875 152.292969 65.917969 152.035156 65.8125 C 151.78125 65.707031 151.519531 65.625 151.25 65.574219 C 150.976562 65.519531 150.707031 65.492188 150.429688 65.492188 L 86.039062 65.492188 C 85.875 65.945312 85.789062 66.410156 85.785156 66.890625 C 85.785156 67.167969 85.808594 67.441406 85.863281 67.710938 C 85.917969 67.980469 85.996094 68.242188 86.101562 68.5 C 86.207031 68.753906 86.339844 68.996094 86.492188 69.222656 C 86.644531 69.453125 86.820312 69.664062 87.011719 69.859375 C 87.207031 70.054688 87.421875 70.230469 87.648438 70.382812 C 87.878906 70.535156 88.121094 70.664062 88.375 70.769531 C 88.628906 70.875 88.894531 70.957031 89.164062 71.011719 C 89.433594 71.0625 89.707031 71.089844 89.984375 71.089844 L 154.371094 71.089844 C 154.539062 70.640625 154.625 70.171875 154.628906 69.691406 Z M 154.628906 69.691406 " fill-opacity="0.2" fill-rule="nonzero"/></g><g fill="#ffffff" fill-opacity="1"><g transform="translate(2.341571, 176.820951)"><g><path d="M 27.765625 -64.0625 C 31.171875 -64.0625 34.5 -63.566406 37.75 -62.578125 C 41 -61.585938 43.414062 -60.609375 45 -59.640625 L 47.28125 -58.109375 L 41.484375 -46.671875 C 41.023438 -46.972656 40.390625 -47.363281 39.578125 -47.84375 C 38.765625 -48.332031 37.238281 -48.984375 35 -49.796875 C 32.769531 -50.609375 30.6875 -51.015625 28.75 -51.015625 C 26.363281 -51.015625 24.519531 -50.503906 23.21875 -49.484375 C 21.925781 -48.472656 21.28125 -47.101562 21.28125 -45.375 C 21.28125 -44.507812 21.582031 -43.707031 22.1875 -42.96875 C 22.800781 -42.238281 23.84375 -41.453125 25.3125 -40.609375 C 26.789062 -39.773438 28.085938 -39.101562 29.203125 -38.59375 C 30.328125 -38.082031 32.054688 -37.316406 34.390625 -36.296875 C 38.460938 -34.566406 41.929688 -32.210938 44.796875 -29.234375 C 47.671875 -26.265625 49.109375 -22.898438 49.109375 -19.140625 C 49.109375 -15.535156 48.457031 -12.382812 47.15625 -9.6875 C 45.863281 -6.988281 44.085938 -4.875 41.828125 -3.34375 C 39.566406 -1.820312 37.0625 -0.695312 34.3125 0.03125 C 31.570312 0.769531 28.597656 1.140625 25.390625 1.140625 C 22.648438 1.140625 19.957031 0.859375 17.3125 0.296875 C 14.664062 -0.253906 12.453125 -0.945312 10.671875 -1.78125 C 8.898438 -2.625 7.300781 -3.453125 5.875 -4.265625 C 4.445312 -5.078125 3.40625 -5.765625 2.75 -6.328125 L 1.75 -7.171875 L 8.921875 -19.21875 C 9.535156 -18.707031 10.375 -18.054688 11.4375 -17.265625 C 12.507812 -16.484375 14.40625 -15.429688 17.125 -14.109375 C 19.84375 -12.785156 22.242188 -12.125 24.328125 -12.125 C 30.378906 -12.125 33.40625 -14.179688 33.40625 -18.296875 C 33.40625 -19.160156 33.1875 -19.960938 32.75 -20.703125 C 32.320312 -21.441406 31.5625 -22.179688 30.46875 -22.921875 C 29.375 -23.660156 28.40625 -24.242188 27.5625 -24.671875 C 26.726562 -25.097656 25.359375 -25.753906 23.453125 -26.640625 C 21.546875 -27.535156 20.132812 -28.210938 19.21875 -28.671875 C 15.40625 -30.554688 12.457031 -32.910156 10.375 -35.734375 C 8.289062 -38.554688 7.25 -41.59375 7.25 -44.84375 C 7.25 -50.488281 9.332031 -55.101562 13.5 -58.6875 C 17.664062 -62.269531 22.421875 -64.0625 27.765625 -64.0625 Z M 27.765625 -64.0625 "/></g></g></g><g fill="#ffffff" fill-opacity="1"><g transform="translate(49.773616, 176.820951)"><g><path d="M 56.59375 0 L 53.609375 -37.296875 L 53.234375 -37.296875 L 40.34375 -0.375 L 31.796875 -0.375 L 18.90625 -37.296875 L 18.53125 -37.296875 L 15.5625 0 L 1.21875 0 L 6.859375 -62.921875 L 22.109375 -62.921875 L 36.078125 -26.609375 L 50.03125 -62.921875 L 65.28125 -62.921875 L 70.921875 0 Z M 56.59375 0 "/></g></g></g><g fill="#ffffff" fill-opacity="1"><g transform="translate(118.100625, 176.820951)"><g><path d="M 38.0625 -12.96875 C 40.25 -12.96875 42.367188 -13.296875 44.421875 -13.953125 C 46.484375 -14.617188 48 -15.253906 48.96875 -15.859375 L 50.40625 -16.859375 L 56.515625 -4.65625 C 56.304688 -4.5 56.023438 -4.289062 55.671875 -4.03125 C 55.316406 -3.78125 54.488281 -3.3125 53.1875 -2.625 C 51.894531 -1.945312 50.507812 -1.351562 49.03125 -0.84375 C 47.5625 -0.332031 45.628906 0.125 43.234375 0.53125 C 40.847656 0.9375 38.382812 1.140625 35.84375 1.140625 C 30 1.140625 24.457031 -0.289062 19.21875 -3.15625 C 13.976562 -6.03125 9.753906 -9.984375 6.546875 -15.015625 C 3.347656 -20.054688 1.75 -25.5 1.75 -31.34375 C 1.75 -35.769531 2.6875 -40.015625 4.5625 -44.078125 C 6.445312 -48.148438 8.953125 -51.632812 12.078125 -54.53125 C 15.210938 -57.425781 18.863281 -59.738281 23.03125 -61.46875 C 27.195312 -63.195312 31.46875 -64.0625 35.84375 -64.0625 C 39.914062 -64.0625 43.664062 -63.578125 47.09375 -62.609375 C 50.519531 -61.648438 52.945312 -60.6875 54.375 -59.71875 L 56.515625 -58.265625 L 50.40625 -46.0625 C 50.050781 -46.363281 49.519531 -46.726562 48.8125 -47.15625 C 48.101562 -47.59375 46.679688 -48.164062 44.546875 -48.875 C 42.410156 -49.59375 40.25 -49.953125 38.0625 -49.953125 C 34.601562 -49.953125 31.5 -49.390625 28.75 -48.265625 C 26.007812 -47.148438 23.835938 -45.675781 22.234375 -43.84375 C 20.628906 -42.019531 19.40625 -40.050781 18.5625 -37.9375 C 17.726562 -35.832031 17.3125 -33.6875 17.3125 -31.5 C 17.3125 -26.71875 19.101562 -22.429688 22.6875 -18.640625 C 26.269531 -14.859375 31.394531 -12.96875 38.0625 -12.96875 Z M 38.0625 -12.96875 "/></g></g></g><g fill="#ffffff" fill-opacity="1"><g transform="translate(171.709644, 176.820951)"><g><path d="M 4.578125 -62.921875 L 24.09375 -62.921875 C 30 -62.921875 34.703125 -61.660156 38.203125 -59.140625 C 41.710938 -56.628906 43.46875 -52.550781 43.46875 -46.90625 C 43.46875 -40.601562 40.847656 -36.101562 35.609375 -33.40625 C 44.554688 -31.832031 49.03125 -26.546875 49.03125 -17.546875 C 49.03125 -12.253906 47.203125 -8.003906 43.546875 -4.796875 C 39.890625 -1.597656 34.859375 0 28.453125 0 L 4.578125 0 Z M 18.90625 -38.28125 L 20.0625 -38.28125 C 23.257812 -38.28125 25.644531 -38.835938 27.21875 -39.953125 C 28.800781 -41.078125 29.59375 -42.910156 29.59375 -45.453125 C 29.59375 -49.722656 26.414062 -51.859375 20.0625 -51.859375 L 18.90625 -51.859375 Z M 18.90625 -11.0625 L 23.40625 -11.0625 C 30.425781 -11.0625 33.9375 -13.398438 33.9375 -18.078125 C 33.9375 -20.867188 33.054688 -22.875 31.296875 -24.09375 C 29.546875 -25.320312 26.914062 -25.9375 23.40625 -25.9375 L 18.90625 -25.9375 Z M 18.90625 -11.0625 "/></g></g></g></svg>