<svg xmlns="http://www.w3.org/2000/svg" xmlns:xlink="http://www.w3.org/1999/xlink" width="1024" zoomAndPan="magnify" viewBox="0 0 768 767.999994" height="1024" preserveAspectRatio="xMidYMid meet" version="1.0"><defs><g/><clipPath id="d450535447"><path d="M 33.242188 465 L 734.492188 465 L 734.492188 734.492188 L 33.242188 734.492188 Z M 33.242188 465 " clip-rule="nonzero"/></clipPath><clipPath id="4acd7a6210"><path d="M 33.242188 395 L 734.492188 395 L 734.492188 466 L 33.242188 466 Z M 33.242188 395 " clip-rule="nonzero"/></clipPath><clipPath id="b5649b7ed9"><path d="M 150 465 L 618 465 L 618 734.492188 L 150 734.492188 Z M 150 465 " clip-rule="nonzero"/></clipPath><clipPath id="7a61fe8b19"><path d="M 290 33.242188 L 478 33.242188 L 478 396 L 290 396 Z M 290 33.242188 " clip-rule="nonzero"/></clipPath><clipPath id="d92f61b98d"><path d="M 159 395 L 734.492188 395 L 734.492188 443 L 159 443 Z M 159 395 " clip-rule="nonzero"/></clipPath></defs><g fill="#000000" fill-opacity="1"><g transform="translate(365.931225, 394.5)"><g><path d="M 12.609375 -2.015625 L 12.484375 -2.015625 C 11.429688 -0.484375 9.863281 0.28125 7.78125 0.28125 C 5.820312 0.28125 4.296875 -0.390625 3.203125 -1.734375 C 2.117188 -3.078125 1.578125 -4.984375 1.578125 -7.453125 C 1.578125 -9.921875 2.125 -11.835938 3.21875 -13.203125 C 4.3125 -14.578125 5.832031 -15.265625 7.78125 -15.265625 C 9.8125 -15.265625 11.367188 -14.523438 12.453125 -13.046875 L 12.640625 -13.046875 L 12.53125 -14.125 L 12.484375 -15.171875 L 12.484375 -21.28125 L 14.75 -21.28125 L 14.75 0 L 12.90625 0 Z M 8.0625 -1.625 C 9.613281 -1.625 10.738281 -2.046875 11.4375 -2.890625 C 12.132812 -3.734375 12.484375 -5.09375 12.484375 -6.96875 L 12.484375 -7.453125 C 12.484375 -9.578125 12.128906 -11.09375 11.421875 -12 C 10.710938 -12.90625 9.585938 -13.359375 8.046875 -13.359375 C 6.710938 -13.359375 5.691406 -12.835938 4.984375 -11.796875 C 4.273438 -10.765625 3.921875 -9.304688 3.921875 -7.421875 C 3.921875 -5.503906 4.269531 -4.054688 4.96875 -3.078125 C 5.675781 -2.109375 6.707031 -1.625 8.0625 -1.625 Z M 8.0625 -1.625 "/></g></g></g><g fill="#000000" fill-opacity="1"><g transform="translate(383.087039, 394.5)"><g><path d="M 9.15625 -13.21875 L 5.34375 -13.21875 L 5.34375 0 L 3.078125 0 L 3.078125 -13.21875 L 0.390625 -13.21875 L 0.390625 -14.25 L 3.078125 -15.0625 L 3.078125 -15.90625 C 3.078125 -19.582031 4.6875 -21.421875 7.90625 -21.421875 C 8.695312 -21.421875 9.625 -21.265625 10.6875 -20.953125 L 10.109375 -19.125 C 9.234375 -19.40625 8.484375 -19.546875 7.859375 -19.546875 C 7.003906 -19.546875 6.367188 -19.257812 5.953125 -18.6875 C 5.546875 -18.125 5.34375 -17.210938 5.34375 -15.953125 L 5.34375 -14.984375 L 9.15625 -14.984375 Z M 9.15625 -13.21875 "/></g></g></g><g fill="#000000" fill-opacity="1"><g transform="translate(392.573996, 394.5)"><g><path d="M 9.15625 -13.21875 L 5.34375 -13.21875 L 5.34375 0 L 3.078125 0 L 3.078125 -13.21875 L 0.390625 -13.21875 L 0.390625 -14.25 L 3.078125 -15.0625 L 3.078125 -15.90625 C 3.078125 -19.582031 4.6875 -21.421875 7.90625 -21.421875 C 8.695312 -21.421875 9.625 -21.265625 10.6875 -20.953125 L 10.109375 -19.125 C 9.234375 -19.40625 8.484375 -19.546875 7.859375 -19.546875 C 7.003906 -19.546875 6.367188 -19.257812 5.953125 -18.6875 C 5.546875 -18.125 5.34375 -17.210938 5.34375 -15.953125 L 5.34375 -14.984375 L 9.15625 -14.984375 Z M 9.15625 -13.21875 "/></g></g></g><g clip-path="url(#d450535447)"><path fill="#4e4f50" d="M 687.742188 465.679688 L 733.871094 696.332031 C 734.28125 698.394531 734.488281 700.480469 734.492188 702.582031 C 734.492188 703.628906 734.4375 704.671875 734.335938 705.710938 C 734.234375 706.75 734.082031 707.785156 733.878906 708.808594 C 733.671875 709.832031 733.421875 710.847656 733.117188 711.847656 C 732.8125 712.84375 732.460938 713.828125 732.0625 714.792969 C 731.660156 715.757812 731.214844 716.703125 730.722656 717.625 C 730.230469 718.546875 729.695312 719.441406 729.113281 720.308594 C 728.53125 721.179688 727.910156 722.015625 727.25 722.824219 C 726.585938 723.632812 725.882812 724.40625 725.144531 725.144531 C 724.40625 725.882812 723.632812 726.585938 722.824219 727.246094 C 722.015625 727.910156 721.179688 728.53125 720.308594 729.113281 C 719.441406 729.695312 718.546875 730.230469 717.625 730.722656 C 716.703125 731.214844 715.757812 731.660156 714.792969 732.0625 C 713.828125 732.460938 712.847656 732.8125 711.847656 733.117188 C 710.847656 733.421875 709.832031 733.671875 708.808594 733.878906 C 707.785156 734.082031 706.75 734.234375 705.710938 734.335938 C 704.671875 734.4375 703.628906 734.492188 702.582031 734.492188 L 692.917969 734.492188 C 689.46875 734.492188 686.105469 733.945312 682.832031 732.855469 L 634.398438 716.714844 C 598.027344 704.585938 560.96875 695.148438 523.226562 688.40625 L 244.492188 688.40625 C 206.753906 695.15625 169.703125 704.589844 133.332031 716.714844 L 84.898438 732.855469 C 81.625 733.945312 78.265625 734.492188 74.8125 734.492188 L 65.148438 734.492188 C 64.101562 734.492188 63.058594 734.4375 62.019531 734.335938 C 60.980469 734.234375 59.949219 734.082031 58.921875 733.878906 C 57.898438 733.671875 56.886719 733.421875 55.886719 733.117188 C 54.886719 732.8125 53.902344 732.460938 52.9375 732.0625 C 51.972656 731.660156 51.027344 731.214844 50.105469 730.722656 C 49.183594 730.230469 48.289062 729.695312 47.421875 729.113281 C 46.550781 728.53125 45.714844 727.910156 44.90625 727.25 C 44.097656 726.585938 43.324219 725.882812 42.585938 725.144531 C 41.847656 724.40625 41.144531 723.632812 40.484375 722.824219 C 39.820312 722.015625 39.199219 721.179688 38.617188 720.308594 C 38.039062 719.441406 37.5 718.546875 37.007812 717.625 C 36.515625 716.703125 36.070312 715.757812 35.667969 714.792969 C 35.269531 713.828125 34.917969 712.847656 34.613281 711.847656 C 34.3125 710.847656 34.058594 709.832031 33.855469 708.808594 C 33.648438 707.785156 33.496094 706.75 33.394531 705.710938 C 33.292969 704.671875 33.242188 703.628906 33.242188 702.582031 C 33.242188 700.480469 33.449219 698.394531 33.859375 696.332031 L 79.992188 465.679688 Z M 687.742188 465.679688 " fill-opacity="1" fill-rule="nonzero"/></g><path fill="#434344" d="M 627.234375 465.679688 L 663.875 646.191406 C 664.203125 647.808594 664.367188 649.441406 664.367188 651.089844 C 664.359375 651.914062 664.3125 652.734375 664.226562 653.554688 C 664.140625 654.371094 664.011719 655.183594 663.847656 655.992188 C 663.679688 656.796875 663.472656 657.59375 663.230469 658.382812 C 662.984375 659.167969 662.699219 659.941406 662.378906 660.699219 C 662.058594 661.457031 661.703125 662.199219 661.308594 662.921875 C 660.914062 663.648438 660.484375 664.347656 660.023438 665.03125 C 659.558594 665.710938 659.066406 666.371094 658.539062 667.003906 C 658.011719 667.636719 657.453125 668.242188 656.867188 668.820312 C 656.28125 669.398438 655.667969 669.945312 655.027344 670.460938 C 654.386719 670.980469 653.71875 671.464844 653.03125 671.917969 C 652.34375 672.371094 651.636719 672.789062 650.90625 673.171875 C 650.175781 673.554688 649.429688 673.902344 648.667969 674.210938 C 647.902344 674.519531 647.125 674.792969 646.335938 675.023438 C 645.546875 675.257812 644.746094 675.453125 643.9375 675.605469 C 643.128906 675.761719 642.3125 675.875 641.492188 675.949219 C 640.671875 676.023438 639.851562 676.058594 639.027344 676.054688 L 631.347656 676.054688 C 628.605469 676.054688 625.933594 675.625 623.332031 674.765625 L 584.890625 662.132812 C 555.988281 652.644531 526.558594 645.261719 496.601562 639.984375 L 275.171875 639.984375 C 245.21875 645.261719 215.792969 652.644531 186.894531 662.132812 L 148.457031 674.765625 C 145.855469 675.625 143.1875 676.054688 140.449219 676.054688 L 132.769531 676.054688 C 131.949219 676.058594 131.125 676.023438 130.304688 675.949219 C 129.484375 675.875 128.671875 675.761719 127.859375 675.605469 C 127.050781 675.453125 126.253906 675.257812 125.460938 675.023438 C 124.671875 674.792969 123.894531 674.519531 123.132812 674.210938 C 122.367188 673.902344 121.621094 673.554688 120.894531 673.171875 C 120.164062 672.789062 119.453125 672.371094 118.765625 671.917969 C 118.078125 671.464844 117.414062 670.980469 116.773438 670.460938 C 116.132812 669.945312 115.519531 669.398438 114.929688 668.820312 C 114.34375 668.242188 113.789062 667.636719 113.261719 667.003906 C 112.734375 666.371094 112.238281 665.710938 111.773438 665.03125 C 111.3125 664.347656 110.882812 663.648438 110.492188 662.921875 C 110.097656 662.199219 109.738281 661.457031 109.417969 660.699219 C 109.097656 659.941406 108.816406 659.167969 108.570312 658.382812 C 108.324219 657.59375 108.121094 656.796875 107.953125 655.992188 C 107.785156 655.183594 107.660156 654.371094 107.574219 653.554688 C 107.484375 652.734375 107.4375 651.914062 107.433594 651.089844 C 107.433594 649.441406 107.59375 647.808594 107.921875 646.191406 L 144.5625 465.679688 Z M 627.234375 465.679688 " fill-opacity="1" fill-rule="nonzero"/><g clip-path="url(#4acd7a6210)"><path fill="#e24b40" d="M 68.304688 395.554688 L 699.429688 395.554688 C 700.578125 395.554688 701.722656 395.609375 702.863281 395.722656 C 704.007812 395.835938 705.140625 396.003906 706.269531 396.226562 C 707.394531 396.449219 708.507812 396.730469 709.605469 397.0625 C 710.703125 397.394531 711.785156 397.78125 712.847656 398.222656 C 713.90625 398.660156 714.945312 399.152344 715.957031 399.691406 C 716.96875 400.234375 717.953125 400.824219 718.90625 401.460938 C 719.863281 402.101562 720.785156 402.785156 721.671875 403.511719 C 722.558594 404.242188 723.410156 405.011719 724.222656 405.824219 C 725.03125 406.632812 725.804688 407.484375 726.53125 408.371094 C 727.261719 409.261719 727.945312 410.179688 728.582031 411.136719 C 729.21875 412.089844 729.808594 413.074219 730.351562 414.085938 C 730.890625 415.101562 731.382812 416.136719 731.820312 417.199219 C 732.261719 418.257812 732.648438 419.339844 732.980469 420.4375 C 733.3125 421.535156 733.59375 422.648438 733.816406 423.773438 C 734.039062 424.902344 734.210938 426.035156 734.320312 427.179688 C 734.433594 428.320312 734.492188 429.46875 734.492188 430.617188 C 734.492188 431.765625 734.433594 432.910156 734.320312 434.050781 C 734.210938 435.195312 734.039062 436.328125 733.816406 437.457031 C 733.59375 438.582031 733.3125 439.695312 732.980469 440.792969 C 732.648438 441.894531 732.261719 442.972656 731.820312 444.035156 C 731.382812 445.09375 730.890625 446.132812 730.351562 447.144531 C 729.808594 448.15625 729.21875 449.140625 728.582031 450.09375 C 727.945312 451.050781 727.261719 451.972656 726.53125 452.859375 C 725.804688 453.746094 725.03125 454.597656 724.222656 455.410156 C 723.410156 456.21875 722.558594 456.992188 721.671875 457.71875 C 720.785156 458.449219 719.863281 459.132812 718.90625 459.769531 C 717.953125 460.40625 716.96875 460.996094 715.957031 461.539062 C 714.945312 462.078125 713.90625 462.570312 712.847656 463.007812 C 711.785156 463.449219 710.703125 463.835938 709.605469 464.167969 C 708.507812 464.5 707.394531 464.78125 706.269531 465.003906 C 705.140625 465.226562 704.007812 465.398438 702.863281 465.507812 C 701.722656 465.621094 700.578125 465.679688 699.429688 465.679688 L 68.304688 465.679688 C 67.15625 465.679688 66.007812 465.621094 64.867188 465.507812 C 63.722656 465.398438 62.589844 465.226562 61.460938 465.003906 C 60.335938 464.78125 59.222656 464.5 58.125 464.167969 C 57.027344 463.835938 55.945312 463.449219 54.886719 463.007812 C 53.824219 462.570312 52.789062 462.078125 51.773438 461.539062 C 50.761719 460.996094 49.777344 460.40625 48.824219 459.769531 C 47.867188 459.132812 46.949219 458.449219 46.058594 457.71875 C 45.171875 456.992188 44.320312 456.21875 43.511719 455.410156 C 42.699219 454.597656 41.929688 453.746094 41.199219 452.859375 C 40.472656 451.972656 39.789062 451.050781 39.148438 450.09375 C 38.511719 449.140625 37.921875 448.15625 37.378906 447.144531 C 36.839844 446.132812 36.347656 445.09375 35.910156 444.035156 C 35.46875 442.972656 35.082031 441.894531 34.75 440.792969 C 34.417969 439.695312 34.136719 438.582031 33.914062 437.457031 C 33.691406 436.328125 33.523438 435.195312 33.410156 434.050781 C 33.296875 432.910156 33.242188 431.765625 33.242188 430.617188 C 33.242188 429.46875 33.296875 428.320312 33.410156 427.179688 C 33.523438 426.035156 33.691406 424.902344 33.914062 423.773438 C 34.136719 422.648438 34.417969 421.535156 34.75 420.4375 C 35.082031 419.339844 35.46875 418.257812 35.910156 417.199219 C 36.347656 416.136719 36.839844 415.101562 37.378906 414.085938 C 37.921875 413.074219 38.511719 412.089844 39.148438 411.136719 C 39.789062 410.179688 40.472656 409.261719 41.199219 408.371094 C 41.929688 407.484375 42.699219 406.632812 43.511719 405.824219 C 44.320312 405.011719 45.171875 404.242188 46.058594 403.511719 C 46.949219 402.785156 47.867188 402.101562 48.824219 401.460938 C 49.777344 400.824219 50.761719 400.234375 51.773438 399.691406 C 52.789062 399.152344 53.824219 398.660156 54.886719 398.222656 C 55.945312 397.78125 57.027344 397.394531 58.125 397.0625 C 59.222656 396.730469 60.335938 396.449219 61.460938 396.226562 C 62.589844 396.003906 63.722656 395.835938 64.867188 395.722656 C 66.007812 395.609375 67.15625 395.554688 68.304688 395.554688 Z M 68.304688 395.554688 " fill-opacity="1" fill-rule="nonzero"/></g><path fill="#ad3532" d="M 68.304688 395.554688 C 68.304688 391.335938 68.386719 387.121094 68.558594 382.910156 C 68.726562 378.695312 68.980469 374.488281 69.316406 370.285156 C 69.65625 366.082031 70.078125 361.886719 70.582031 357.699219 C 71.089844 353.515625 71.679688 349.339844 72.351562 345.175781 C 73.023438 341.015625 73.78125 336.867188 74.621094 332.734375 C 75.460938 328.601562 76.378906 324.488281 77.386719 320.394531 C 78.390625 316.296875 79.476562 312.222656 80.640625 308.171875 C 81.808594 304.121094 83.058594 300.09375 84.386719 296.09375 C 85.714844 292.089844 87.121094 288.117188 88.609375 284.171875 C 90.097656 280.226562 91.664062 276.3125 93.308594 272.429688 C 94.953125 268.546875 96.675781 264.699219 98.476562 260.886719 C 100.273438 257.070312 102.148438 253.296875 104.097656 249.554688 C 106.046875 245.816406 108.074219 242.121094 110.171875 238.460938 C 112.269531 234.804688 114.441406 231.191406 116.683594 227.621094 C 118.925781 224.050781 121.238281 220.527344 123.625 217.046875 C 126.007812 213.570312 128.460938 210.140625 130.984375 206.761719 C 133.503906 203.382812 136.09375 200.054688 138.75 196.78125 C 141.402344 193.503906 144.125 190.28125 146.90625 187.117188 C 149.691406 183.949219 152.539062 180.839844 155.445312 177.785156 C 158.355469 174.734375 161.324219 171.742188 164.351562 168.808594 C 167.382812 165.871094 170.46875 163 173.609375 160.191406 C 176.753906 157.378906 179.953125 154.632812 183.207031 151.953125 C 186.460938 149.269531 189.765625 146.65625 193.125 144.105469 C 196.484375 141.554688 199.894531 139.074219 203.351562 136.660156 C 206.808594 134.25 210.3125 131.90625 213.867188 129.632812 C 217.417969 127.359375 221.011719 125.160156 224.652344 123.03125 C 228.292969 120.902344 231.972656 118.847656 235.695312 116.867188 C 239.417969 114.886719 243.179688 112.980469 246.976562 111.152344 C 250.777344 109.320312 254.609375 107.566406 258.480469 105.890625 C 262.347656 104.214844 266.25 102.617188 270.183594 101.09375 C 274.117188 99.574219 278.078125 98.132812 282.066406 96.773438 C 286.058594 95.410156 290.074219 94.128906 294.117188 92.929688 L 473.613281 92.929688 C 477.65625 94.128906 481.671875 95.410156 485.664062 96.773438 C 489.652344 98.132812 493.617188 99.574219 497.546875 101.09375 C 501.480469 102.617188 505.382812 104.214844 509.25 105.890625 C 513.121094 107.566406 516.953125 109.320312 520.753906 111.152344 C 524.550781 112.980469 528.3125 114.886719 532.035156 116.867188 C 535.757812 118.847656 539.4375 120.902344 543.078125 123.03125 C 546.71875 125.160156 550.3125 127.359375 553.867188 129.632812 C 557.417969 131.90625 560.921875 134.25 564.378906 136.660156 C 567.839844 139.074219 571.246094 141.554688 574.605469 144.105469 C 577.964844 146.65625 581.269531 149.269531 584.523438 151.953125 C 587.777344 154.632812 590.976562 157.378906 594.121094 160.191406 C 597.261719 163 600.351562 165.871094 603.378906 168.808594 C 606.40625 171.742188 609.375 174.734375 612.285156 177.785156 C 615.191406 180.839844 618.039062 183.949219 620.824219 187.117188 C 623.609375 190.28125 626.328125 193.503906 628.984375 196.78125 C 631.636719 200.054688 634.226562 203.382812 636.746094 206.761719 C 639.269531 210.140625 641.722656 213.570312 644.105469 217.046875 C 646.492188 220.527344 648.804688 224.050781 651.046875 227.621094 C 653.292969 231.191406 655.460938 234.804688 657.558594 238.460938 C 659.660156 242.121094 661.683594 245.816406 663.632812 249.554688 C 665.582031 253.296875 667.457031 257.070312 669.257812 260.886719 C 671.054688 264.699219 672.777344 268.546875 674.421875 272.429688 C 676.066406 276.3125 677.632812 280.226562 679.121094 284.171875 C 680.609375 288.117188 682.015625 292.089844 683.34375 296.09375 C 684.675781 300.09375 685.921875 304.121094 687.089844 308.171875 C 688.257812 312.222656 689.34375 316.296875 690.347656 320.394531 C 691.351562 324.488281 692.273438 328.601562 693.113281 332.734375 C 693.949219 336.867188 694.707031 341.015625 695.378906 345.175781 C 696.054688 349.339844 696.640625 353.515625 697.148438 357.699219 C 697.652344 361.886719 698.074219 366.082031 698.414062 370.285156 C 698.75 374.488281 699.003906 378.695312 699.175781 382.910156 C 699.34375 387.121094 699.429688 391.335938 699.429688 395.554688 Z M 68.304688 395.554688 " fill-opacity="1" fill-rule="nonzero"/><g clip-path="url(#b5649b7ed9)"><path fill="#7a7b7d" d="M 570.867188 465.679688 L 570.867188 500.742188 C 570.867188 503.800781 570.789062 506.859375 570.640625 509.917969 C 570.488281 512.972656 570.265625 516.023438 569.964844 519.070312 C 569.664062 522.117188 569.289062 525.152344 568.839844 528.179688 C 568.390625 531.207031 567.871094 534.222656 567.273438 537.222656 C 566.675781 540.222656 566.003906 543.210938 565.261719 546.179688 C 564.519531 549.148438 563.703125 552.09375 562.8125 555.023438 C 561.925781 557.953125 560.964844 560.859375 559.933594 563.738281 C 558.902344 566.621094 557.800781 569.476562 556.632812 572.300781 C 555.460938 575.128906 554.21875 577.925781 552.910156 580.695312 C 551.601562 583.460938 550.226562 586.191406 548.785156 588.890625 C 547.34375 591.589844 545.835938 594.253906 544.261719 596.878906 C 542.6875 599.503906 541.050781 602.085938 539.351562 604.632812 C 537.648438 607.175781 535.886719 609.679688 534.066406 612.136719 C 532.242188 614.59375 530.359375 617.007812 528.417969 619.371094 C 526.476562 621.738281 524.480469 624.054688 522.421875 626.320312 C 520.367188 628.589844 518.257812 630.804688 516.09375 632.96875 C 513.929688 635.132812 511.714844 637.242188 509.445312 639.296875 C 507.179688 641.355469 504.863281 643.351562 502.496094 645.292969 C 500.132812 647.234375 497.71875 649.117188 495.261719 650.941406 C 492.804688 652.761719 490.300781 654.523438 487.757812 656.226562 C 485.210938 657.925781 482.628906 659.5625 480.003906 661.136719 C 477.378906 662.710938 474.714844 664.21875 472.015625 665.660156 C 469.316406 667.101562 466.585938 668.476562 463.820312 669.785156 C 461.050781 671.09375 458.253906 672.335938 455.425781 673.507812 C 452.601562 674.675781 449.746094 675.777344 446.863281 676.808594 C 443.984375 677.839844 441.078125 678.800781 438.148438 679.6875 C 435.21875 680.578125 432.273438 681.394531 429.304688 682.136719 C 426.335938 682.878906 423.347656 683.550781 420.347656 684.148438 C 417.347656 684.746094 414.332031 685.265625 411.304688 685.714844 C 408.277344 686.164062 405.242188 686.539062 402.195312 686.839844 C 399.148438 687.140625 396.097656 687.363281 393.042969 687.515625 C 389.984375 687.664062 386.925781 687.742188 383.867188 687.742188 C 380.804688 687.742188 377.746094 687.664062 374.691406 687.515625 C 371.632812 687.363281 368.582031 687.140625 365.535156 686.839844 C 362.492188 686.539062 359.453125 686.164062 356.425781 685.714844 C 353.398438 685.265625 350.386719 684.746094 347.382812 684.148438 C 344.382812 683.550781 341.398438 682.878906 338.429688 682.136719 C 335.460938 681.394531 332.511719 680.578125 329.582031 679.6875 C 326.652344 678.800781 323.75 677.839844 320.867188 676.808594 C 317.984375 675.777344 315.132812 674.675781 312.304688 673.507812 C 309.476562 672.335938 306.679688 671.09375 303.914062 669.785156 C 301.144531 668.476562 298.414062 667.101562 295.714844 665.660156 C 293.015625 664.21875 290.351562 662.710938 287.726562 661.136719 C 285.101562 659.5625 282.519531 657.925781 279.972656 656.226562 C 277.429688 654.523438 274.929688 652.761719 272.46875 650.941406 C 270.011719 649.117188 267.601562 647.234375 265.234375 645.292969 C 262.867188 643.351562 260.550781 641.355469 258.285156 639.296875 C 256.015625 637.242188 253.800781 635.132812 251.636719 632.96875 C 249.472656 630.804688 247.363281 628.589844 245.308594 626.320312 C 243.253906 624.054688 241.253906 621.738281 239.3125 619.371094 C 237.371094 617.007812 235.488281 614.59375 233.664062 612.136719 C 231.84375 609.679688 230.082031 607.175781 228.378906 604.632812 C 226.679688 602.085938 225.042969 599.503906 223.46875 596.878906 C 221.898438 594.253906 220.390625 591.589844 218.945312 588.890625 C 217.503906 586.191406 216.128906 583.460938 214.820312 580.695312 C 213.511719 577.925781 212.269531 575.128906 211.101562 572.300781 C 209.929688 569.476562 208.828125 566.621094 207.796875 563.738281 C 206.765625 560.859375 205.804688 557.953125 204.917969 555.023438 C 204.03125 552.09375 203.214844 549.148438 202.46875 546.179688 C 201.726562 543.210938 201.054688 540.222656 200.457031 537.222656 C 199.863281 534.222656 199.339844 531.207031 198.890625 528.179688 C 198.441406 525.152344 198.066406 522.117188 197.765625 519.070312 C 197.464844 516.023438 197.242188 512.972656 197.089844 509.917969 C 196.941406 506.859375 196.867188 503.800781 196.867188 500.742188 L 196.867188 465.679688 L 150.117188 465.679688 L 150.117188 500.742188 C 150.117188 504.566406 150.210938 508.390625 150.398438 512.210938 C 150.585938 516.03125 150.867188 519.84375 151.242188 523.652344 C 151.617188 527.460938 152.085938 531.253906 152.644531 535.039062 C 153.207031 538.824219 153.859375 542.589844 154.605469 546.34375 C 155.351562 550.09375 156.191406 553.828125 157.121094 557.539062 C 158.050781 561.246094 159.070312 564.933594 160.179688 568.59375 C 161.292969 572.253906 162.492188 575.886719 163.78125 579.488281 C 165.070312 583.089844 166.445312 586.660156 167.910156 590.191406 C 169.371094 593.726562 170.921875 597.222656 172.558594 600.679688 C 174.195312 604.140625 175.914062 607.554688 177.714844 610.929688 C 179.519531 614.304688 181.40625 617.628906 183.371094 620.910156 C 185.339844 624.191406 187.382812 627.425781 189.507812 630.605469 C 191.636719 633.785156 193.835938 636.914062 196.117188 639.984375 C 198.394531 643.058594 200.746094 646.074219 203.175781 649.03125 C 205.601562 651.988281 208.097656 654.882812 210.667969 657.71875 C 213.238281 660.550781 215.875 663.320312 218.578125 666.027344 C 221.285156 668.730469 224.054688 671.367188 226.890625 673.9375 C 229.722656 676.507812 232.617188 679.003906 235.578125 681.433594 C 238.535156 683.859375 241.546875 686.210938 244.621094 688.492188 C 247.695312 690.769531 250.820312 692.972656 254 695.097656 C 257.183594 697.222656 260.414062 699.269531 263.695312 701.234375 C 266.976562 703.203125 270.304688 705.085938 273.675781 706.890625 C 277.050781 708.691406 280.464844 710.414062 283.925781 712.046875 C 287.382812 713.683594 290.878906 715.234375 294.414062 716.699219 C 297.949219 718.160156 301.515625 719.539062 305.117188 720.828125 C 308.71875 722.117188 312.351562 723.316406 316.011719 724.425781 C 319.671875 725.535156 323.359375 726.554688 327.070312 727.484375 C 330.78125 728.414062 334.511719 729.253906 338.261719 730 C 342.015625 730.746094 345.785156 731.398438 349.566406 731.960938 C 353.351562 732.523438 357.148438 732.988281 360.953125 733.363281 C 364.761719 733.738281 368.574219 734.019531 372.394531 734.210938 C 376.21875 734.398438 380.039062 734.492188 383.867188 734.492188 C 387.691406 734.492188 391.515625 734.398438 395.335938 734.210938 C 399.15625 734.019531 402.96875 733.738281 406.777344 733.363281 C 410.585938 732.988281 414.378906 732.523438 418.164062 731.960938 C 421.949219 731.398438 425.714844 730.746094 429.46875 730 C 433.21875 729.253906 436.953125 728.414062 440.664062 727.484375 C 444.371094 726.554688 448.058594 725.535156 451.71875 724.425781 C 455.378906 723.316406 459.011719 722.117188 462.613281 720.828125 C 466.214844 719.539062 469.785156 718.160156 473.316406 716.699219 C 476.851562 715.234375 480.347656 713.683594 483.804688 712.046875 C 487.265625 710.414062 490.679688 708.691406 494.054688 706.890625 C 497.429688 705.085938 500.757812 703.203125 504.035156 701.234375 C 507.316406 699.269531 510.550781 697.222656 513.730469 695.097656 C 516.910156 692.972656 520.039062 690.769531 523.109375 688.492188 C 526.183594 686.210938 529.199219 683.859375 532.15625 681.433594 C 535.113281 679.003906 538.007812 676.507812 540.84375 673.9375 C 543.675781 671.367188 546.445312 668.730469 549.152344 666.027344 C 551.855469 663.320312 554.492188 660.550781 557.0625 657.71875 C 559.632812 654.882812 562.128906 651.988281 564.558594 649.03125 C 566.984375 646.074219 569.335938 643.058594 571.613281 639.984375 C 573.894531 636.914062 576.097656 633.785156 578.222656 630.605469 C 580.347656 627.425781 582.394531 624.191406 584.359375 620.910156 C 586.328125 617.628906 588.210938 614.304688 590.015625 610.929688 C 591.816406 607.554688 593.539062 604.140625 595.171875 600.679688 C 596.808594 597.222656 598.359375 593.726562 599.824219 590.191406 C 601.285156 586.660156 602.664062 583.089844 603.953125 579.488281 C 605.242188 575.886719 606.441406 572.253906 607.550781 568.59375 C 608.660156 564.933594 609.679688 561.246094 610.609375 557.539062 C 611.539062 553.828125 612.378906 550.09375 613.125 546.34375 C 613.871094 542.589844 614.523438 538.824219 615.085938 535.039062 C 615.648438 531.253906 616.113281 527.460938 616.488281 523.652344 C 616.863281 519.84375 617.144531 516.03125 617.335938 512.210938 C 617.523438 508.390625 617.617188 504.566406 617.617188 500.742188 L 617.617188 465.679688 Z M 570.867188 465.679688 " fill-opacity="1" fill-rule="nonzero"/></g><path fill="#ffc239" d="M 70.464844 360.492188 L 697.265625 360.492188 C 695.542969 344.6875 692.644531 329.105469 688.570312 313.742188 L 79.160156 313.742188 C 75.085938 329.105469 72.1875 344.6875 70.464844 360.492188 Z M 70.464844 360.492188 " fill-opacity="1" fill-rule="nonzero"/><g clip-path="url(#7a61fe8b19)"><path fill="#c64635" d="M 314.910156 294.351562 L 325.429688 395.554688 L 442.304688 395.554688 L 452.820312 294.351562 L 465.28125 173.492188 L 477.25 57.785156 C 477.332031 57.007812 477.371094 56.226562 477.367188 55.445312 C 477.367188 54.71875 477.328125 53.992188 477.257812 53.269531 C 477.1875 52.546875 477.082031 51.828125 476.9375 51.113281 C 476.796875 50.402344 476.621094 49.695312 476.410156 49 C 476.199219 48.304688 475.953125 47.621094 475.675781 46.949219 C 475.398438 46.277344 475.085938 45.621094 474.742188 44.980469 C 474.402344 44.335938 474.027344 43.714844 473.625 43.109375 C 473.21875 42.503906 472.785156 41.921875 472.324219 41.359375 C 471.863281 40.796875 471.375 40.257812 470.863281 39.746094 C 470.347656 39.230469 469.808594 38.742188 469.246094 38.28125 C 468.683594 37.820312 468.101562 37.386719 467.496094 36.984375 C 466.890625 36.578125 466.269531 36.207031 465.628906 35.863281 C 464.984375 35.519531 464.328125 35.210938 463.65625 34.929688 C 462.984375 34.652344 462.300781 34.40625 461.605469 34.195312 C 460.910156 33.984375 460.203125 33.808594 459.492188 33.667969 C 458.777344 33.527344 458.058594 33.417969 457.335938 33.347656 C 456.613281 33.277344 455.886719 33.242188 455.160156 33.242188 L 312.570312 33.242188 C 311.84375 33.242188 311.117188 33.277344 310.394531 33.347656 C 309.671875 33.417969 308.953125 33.527344 308.238281 33.667969 C 307.527344 33.808594 306.820312 33.984375 306.125 34.195312 C 305.429688 34.40625 304.746094 34.652344 304.074219 34.929688 C 303.402344 35.210938 302.746094 35.519531 302.105469 35.863281 C 301.460938 36.207031 300.839844 36.578125 300.234375 36.984375 C 299.628906 37.386719 299.046875 37.820312 298.484375 38.28125 C 297.921875 38.742188 297.382812 39.230469 296.871094 39.746094 C 296.355469 40.257812 295.867188 40.796875 295.40625 41.359375 C 294.945312 41.921875 294.511719 42.503906 294.109375 43.109375 C 293.703125 43.714844 293.332031 44.335938 292.988281 44.980469 C 292.644531 45.621094 292.335938 46.277344 292.054688 46.949219 C 291.777344 47.621094 291.53125 48.304688 291.320312 49 C 291.109375 49.695312 290.933594 50.402344 290.792969 51.113281 C 290.652344 51.828125 290.542969 52.546875 290.472656 53.269531 C 290.402344 53.992188 290.367188 54.71875 290.367188 55.445312 C 290.363281 56.226562 290.402344 57.007812 290.484375 57.785156 L 302.449219 173.492188 Z M 314.910156 294.351562 " fill-opacity="1" fill-rule="nonzero"/></g><path fill="#ffc239" d="M 383.867188 348.804688 C 379.976562 347.074219 376.15625 345.210938 372.402344 343.207031 C 368.648438 341.203125 364.972656 339.070312 361.375 336.800781 C 357.773438 334.53125 354.261719 332.136719 350.832031 329.617188 C 347.40625 327.097656 344.074219 324.453125 340.835938 321.695312 C 337.601562 318.933594 334.46875 316.058594 331.4375 313.070312 C 328.40625 310.082031 325.488281 306.992188 322.683594 303.792969 C 319.875 300.597656 317.1875 297.300781 314.617188 293.910156 C 312.050781 290.519531 309.605469 287.042969 307.289062 283.472656 C 304.96875 279.90625 302.78125 276.261719 300.726562 272.535156 C 298.667969 268.8125 296.75 265.015625 294.96875 261.152344 C 293.1875 257.289062 291.542969 253.367188 290.046875 249.386719 C 288.546875 245.40625 287.191406 241.375 285.980469 237.296875 C 284.773438 233.214844 283.710938 229.097656 282.800781 224.945312 C 281.886719 220.789062 281.125 216.605469 280.515625 212.394531 C 279.902344 208.183594 279.445312 203.957031 279.136719 199.714844 C 278.832031 195.46875 278.679688 191.222656 278.679688 186.964844 C 278.675781 186.082031 278.761719 185.207031 278.933594 184.339844 C 279.105469 183.46875 279.363281 182.628906 279.699219 181.808594 C 280.039062 180.992188 280.453125 180.214844 280.941406 179.480469 C 281.433594 178.746094 281.992188 178.0625 282.617188 177.4375 C 283.242188 176.8125 283.921875 176.253906 284.660156 175.761719 C 285.394531 175.269531 286.167969 174.855469 286.988281 174.515625 C 287.804688 174.179688 288.648438 173.921875 289.515625 173.75 C 290.382812 173.578125 291.257812 173.492188 292.140625 173.492188 L 299.214844 173.492188 C 302.210938 173.492188 305.199219 173.34375 308.183594 173.050781 C 311.164062 172.757812 314.125 172.316406 317.0625 171.734375 C 320.003906 171.148438 322.90625 170.421875 325.773438 169.550781 C 328.640625 168.679688 331.460938 167.671875 334.230469 166.527344 C 337 165.378906 339.703125 164.097656 342.347656 162.6875 C 344.988281 161.273438 347.558594 159.734375 350.050781 158.070312 C 352.539062 156.40625 354.945312 154.621094 357.261719 152.722656 C 359.578125 150.820312 361.796875 148.808594 363.914062 146.691406 C 365.226562 145.382812 366.648438 144.210938 368.191406 143.183594 C 369.730469 142.152344 371.355469 141.285156 373.070312 140.574219 C 374.78125 139.867188 376.542969 139.332031 378.363281 138.96875 C 380.179688 138.609375 382.011719 138.429688 383.867188 138.429688 C 385.71875 138.429688 387.554688 138.609375 389.371094 138.96875 C 391.1875 139.332031 392.953125 139.867188 394.664062 140.574219 C 396.375 141.285156 398 142.152344 399.539062 143.183594 C 401.082031 144.210938 402.507812 145.382812 403.816406 146.691406 C 405.933594 148.808594 408.152344 150.820312 410.46875 152.722656 C 412.785156 154.621094 415.191406 156.40625 417.683594 158.070312 C 420.171875 159.734375 422.742188 161.273438 425.382812 162.6875 C 428.027344 164.097656 430.734375 165.378906 433.5 166.527344 C 436.269531 167.671875 439.089844 168.679688 441.957031 169.550781 C 444.824219 170.421875 447.726562 171.148438 450.667969 171.734375 C 453.605469 172.316406 456.566406 172.757812 459.550781 173.050781 C 462.53125 173.34375 465.519531 173.492188 468.519531 173.492188 L 475.53125 173.492188 C 476.417969 173.488281 477.296875 173.570312 478.167969 173.738281 C 479.039062 173.910156 479.882812 174.164062 480.703125 174.5 C 481.523438 174.835938 482.304688 175.25 483.042969 175.742188 C 483.78125 176.234375 484.464844 176.792969 485.09375 177.417969 C 485.722656 178.042969 486.28125 178.726562 486.777344 179.460938 C 487.269531 180.199219 487.6875 180.976562 488.027344 181.796875 C 488.367188 182.617188 488.621094 183.460938 488.796875 184.332031 C 488.96875 185.199219 489.054688 186.078125 489.054688 186.964844 C 489.054688 191.222656 488.898438 195.46875 488.59375 199.714844 C 488.285156 203.957031 487.828125 208.183594 487.21875 212.394531 C 486.605469 216.605469 485.84375 220.789062 484.933594 224.945312 C 484.019531 229.097656 482.957031 233.214844 481.75 237.296875 C 480.539062 241.375 479.1875 245.40625 477.6875 249.386719 C 476.1875 253.367188 474.546875 257.289062 472.761719 261.152344 C 470.980469 265.015625 469.0625 268.8125 467.003906 272.535156 C 464.949219 276.261719 462.761719 279.90625 460.445312 283.472656 C 458.125 287.042969 455.679688 290.519531 453.113281 293.910156 C 450.542969 297.300781 447.855469 300.597656 445.046875 303.792969 C 442.242188 306.992188 439.324219 310.082031 436.292969 313.070312 C 433.265625 316.058594 430.128906 318.933594 426.894531 321.695312 C 423.65625 324.453125 420.324219 327.097656 416.898438 329.617188 C 413.472656 332.136719 409.957031 334.53125 406.359375 336.800781 C 402.757812 339.070312 399.082031 341.203125 395.328125 343.207031 C 391.574219 345.210938 387.753906 347.074219 383.867188 348.804688 Z M 383.867188 348.804688 " fill-opacity="1" fill-rule="nonzero"/><path fill="#ffd55d" d="M 475.589844 173.492188 L 468.578125 173.492188 C 465.578125 173.492188 462.589844 173.34375 459.609375 173.050781 C 456.625 172.757812 453.664062 172.316406 450.726562 171.734375 C 447.785156 171.148438 444.882812 170.421875 442.015625 169.550781 C 439.148438 168.679688 436.328125 167.671875 433.558594 166.527344 C 430.792969 165.378906 428.085938 164.097656 425.441406 162.6875 C 422.800781 161.273438 420.234375 159.734375 417.742188 158.070312 C 415.25 156.40625 412.84375 154.621094 410.527344 152.722656 C 408.210938 150.820312 405.992188 148.808594 403.875 146.691406 C 403.222656 146.039062 402.539062 145.417969 401.824219 144.832031 C 401.109375 144.246094 400.367188 143.695312 399.597656 143.183594 C 398.832031 142.667969 398.039062 142.195312 397.222656 141.757812 C 396.410156 141.324219 395.574219 140.929688 394.722656 140.574219 C 393.867188 140.222656 393 139.910156 392.113281 139.640625 C 391.230469 139.375 390.335938 139.148438 389.429688 138.96875 C 388.523438 138.789062 387.609375 138.652344 386.691406 138.5625 C 385.769531 138.472656 384.847656 138.425781 383.925781 138.425781 C 383 138.425781 382.078125 138.472656 381.160156 138.5625 C 380.238281 138.652344 379.324219 138.789062 378.417969 138.96875 C 377.511719 139.148438 376.617188 139.375 375.734375 139.640625 C 374.847656 139.910156 373.980469 140.222656 373.125 140.574219 C 372.273438 140.929688 371.4375 141.324219 370.625 141.757812 C 369.808594 142.195312 369.015625 142.667969 368.25 143.183594 C 367.480469 143.695312 366.738281 144.246094 366.023438 144.832031 C 365.3125 145.417969 364.625 146.039062 363.972656 146.691406 C 361.933594 148.726562 359.804688 150.660156 357.585938 152.492188 C 355.363281 154.324219 353.0625 156.046875 350.679688 157.664062 C 348.296875 159.277344 345.839844 160.777344 343.316406 162.160156 C 340.789062 163.542969 338.207031 164.804688 335.5625 165.941406 C 332.917969 167.082031 330.226562 168.09375 327.484375 168.980469 C 324.746094 169.863281 321.96875 170.617188 319.160156 171.238281 C 316.347656 171.863281 313.511719 172.351562 310.65625 172.703125 C 307.796875 173.058594 304.929688 173.277344 302.054688 173.363281 L 302.054688 173.492188 C 302.039062 175.773438 302.082031 178.058594 302.191406 180.339844 C 302.296875 182.625 302.464844 184.902344 302.695312 187.175781 C 302.921875 189.449219 303.210938 191.714844 303.5625 193.972656 C 303.914062 196.226562 304.324219 198.476562 304.796875 200.710938 C 305.265625 202.945312 305.796875 205.167969 306.386719 207.375 C 306.976562 209.582031 307.625 211.773438 308.335938 213.945312 C 309.042969 216.117188 309.808594 218.269531 310.632812 220.398438 C 311.453125 222.53125 312.335938 224.636719 313.269531 226.722656 C 314.207031 228.808594 315.199219 230.863281 316.246094 232.894531 C 317.292969 234.925781 318.390625 236.925781 319.546875 238.898438 C 320.699219 240.871094 321.90625 242.808594 323.164062 244.71875 C 324.421875 246.625 325.730469 248.496094 327.089844 250.332031 C 328.449219 252.171875 329.855469 253.96875 331.3125 255.730469 C 332.765625 257.492188 334.265625 259.214844 335.816406 260.894531 C 337.363281 262.574219 338.953125 264.214844 340.589844 265.808594 C 342.222656 267.40625 343.902344 268.953125 345.621094 270.460938 C 347.339844 271.964844 349.097656 273.425781 350.894531 274.835938 C 352.691406 276.246094 354.523438 277.609375 356.394531 278.921875 C 358.261719 280.234375 360.167969 281.496094 362.105469 282.707031 C 364.042969 283.917969 366.011719 285.074219 368.011719 286.179688 C 370.011719 287.285156 372.039062 288.335938 374.09375 289.332031 C 376.152344 290.328125 378.230469 291.269531 380.339844 292.152344 C 382.445312 293.039062 384.574219 293.863281 386.726562 294.636719 C 388.875 295.40625 391.046875 296.117188 393.234375 296.769531 C 395.425781 297.425781 397.628906 298.019531 399.851562 298.554688 C 402.070312 299.089844 404.304688 299.566406 406.550781 299.984375 C 408.800781 300.398438 411.054688 300.753906 413.320312 301.046875 C 415.585938 301.34375 417.859375 301.578125 420.136719 301.75 C 422.414062 301.921875 424.695312 302.035156 426.980469 302.082031 C 429.265625 302.132812 431.546875 302.125 433.832031 302.050781 C 436.117188 301.980469 438.394531 301.84375 440.671875 301.652344 C 442.949219 301.457031 445.21875 301.199219 447.480469 300.882812 C 450.804688 296.9375 453.949219 292.851562 456.914062 288.628906 C 459.878906 284.402344 462.65625 280.058594 465.242188 275.59375 C 467.828125 271.128906 470.214844 266.558594 472.398438 261.882812 C 474.585938 257.207031 476.5625 252.445312 478.332031 247.597656 C 480.101562 242.75 481.652344 237.835938 482.992188 232.851562 C 484.332031 227.867188 485.449219 222.832031 486.351562 217.753906 C 487.25 212.671875 487.921875 207.558594 488.375 202.417969 C 488.828125 197.277344 489.050781 192.125 489.054688 186.964844 C 489.054688 186.082031 488.96875 185.207031 488.796875 184.339844 C 488.625 183.46875 488.371094 182.628906 488.03125 181.808594 C 487.695312 180.992188 487.277344 180.214844 486.789062 179.480469 C 486.296875 178.746094 485.738281 178.0625 485.113281 177.4375 C 484.488281 176.8125 483.808594 176.253906 483.074219 175.761719 C 482.335938 175.269531 481.5625 174.855469 480.746094 174.515625 C 479.925781 174.179688 479.085938 173.921875 478.21875 173.75 C 477.351562 173.578125 476.472656 173.492188 475.589844 173.492188 Z M 475.589844 173.492188 " fill-opacity="1" fill-rule="nonzero"/><g clip-path="url(#d92f61b98d)"><path fill="#ffffff" d="M 734.492188 430.617188 C 734.492188 429.46875 734.433594 428.320312 734.320312 427.179688 C 734.210938 426.035156 734.039062 424.902344 733.816406 423.773438 C 733.59375 422.648438 733.3125 421.535156 732.980469 420.4375 C 732.648438 419.339844 732.261719 418.257812 731.820312 417.199219 C 731.382812 416.136719 730.890625 415.101562 730.351562 414.085938 C 729.808594 413.074219 729.21875 412.089844 728.582031 411.136719 C 727.945312 410.179688 727.261719 409.261719 726.53125 408.371094 C 725.804688 407.484375 725.03125 406.632812 724.222656 405.824219 C 723.410156 405.011719 722.558594 404.242188 721.671875 403.511719 C 720.785156 402.785156 719.863281 402.101562 718.90625 401.460938 C 717.953125 400.824219 716.96875 400.234375 715.957031 399.691406 C 714.945312 399.152344 713.90625 398.660156 712.847656 398.222656 C 711.785156 397.78125 710.703125 397.394531 709.605469 397.0625 C 708.507812 396.730469 707.394531 396.449219 706.269531 396.226562 C 705.140625 396.003906 704.007812 395.835938 702.863281 395.722656 C 701.722656 395.609375 700.578125 395.554688 699.429688 395.554688 L 161.804688 395.554688 C 160.40625 399.324219 159.691406 403.21875 159.652344 407.242188 C 159.652344 408.390625 159.707031 409.535156 159.820312 410.675781 C 159.933594 411.820312 160.101562 412.953125 160.328125 414.082031 C 160.550781 415.207031 160.828125 416.320312 161.164062 417.417969 C 161.496094 418.515625 161.882812 419.597656 162.320312 420.660156 C 162.761719 421.71875 163.25 422.757812 163.792969 423.769531 C 164.335938 424.78125 164.921875 425.765625 165.5625 426.71875 C 166.199219 427.675781 166.882812 428.597656 167.613281 429.484375 C 168.339844 430.371094 169.109375 431.222656 169.921875 432.035156 C 170.734375 432.84375 171.585938 433.617188 172.472656 434.34375 C 173.359375 435.074219 174.28125 435.757812 175.234375 436.394531 C 176.191406 437.03125 177.175781 437.621094 178.1875 438.164062 C 179.199219 438.703125 180.238281 439.195312 181.296875 439.632812 C 182.359375 440.074219 183.4375 440.460938 184.535156 440.792969 C 185.636719 441.125 186.75 441.40625 187.875 441.628906 C 189 441.851562 190.136719 442.023438 191.277344 442.132812 C 192.421875 442.246094 193.566406 442.304688 194.714844 442.304688 L 732.339844 442.304688 C 733.734375 438.53125 734.453125 434.636719 734.492188 430.617188 Z M 734.492188 430.617188 " fill-opacity="0.2" fill-rule="nonzero"/></g></svg>